<svg id="Layer_1" data-name="Layer 1" xmlns="http://www.w3.org/2000/svg" width="204" height="41.44" viewBox="0 0 204 41.44"><defs><style>.cls-1{fill:#dd285d;}.cls-2{fill:#fff;}.cls-3{fill:#040404;}</style></defs><title>Logo_with_black_text</title><rect class="cls-1" width="41.44" height="41.44" rx="4.92"/><rect class="cls-2" x="16.23" y="12.03" width="8.69" height="2.61"/><rect class="cls-2" x="13.62" y="16.95" width="13.91" height="2.61"/><rect class="cls-2" x="10.14" y="21.88" width="20.86" height="2.61"/><rect class="cls-2" x="7.24" y="26.8" width="26.95" height="2.61"/><path class="cls-3" d="M57.45,29.33V14.22h6.66l.16,1a10.32,10.32,0,0,1,2.26-.92,11.16,11.16,0,0,1,2.87-.45V19c-.53,0-1.12.08-1.77.16s-1.26.19-1.85.3a8,8,0,0,0-1.48.43v9.47Z" transform="translate(0 -0.26)"/><path class="cls-3" d="M78.83,29.65a12,12,0,0,1-4.73-.88,7.18,7.18,0,0,1-3.27-2.63,7.55,7.55,0,0,1-1.18-4.3,8,8,0,0,1,2.09-5.77c1.39-1.44,3.48-2.17,6.27-2.17a8.91,8.91,0,0,1,6,1.9,6.66,6.66,0,0,1,2.2,5.31v2.61H75.93q.84,1.76,4.66,1.75a16.07,16.07,0,0,0,2.71-.23,11.47,11.47,0,0,0,2.1-.56v3.89A15.75,15.75,0,0,1,78.83,29.65Zm-2.9-9.5h4.4v-.41a1.58,1.58,0,0,0-.46-1.15,2.25,2.25,0,0,0-1.64-.48,2.41,2.41,0,0,0-1.79.54A2.1,2.1,0,0,0,75.93,20.15Z" transform="translate(0 -0.26)"/><path class="cls-3" d="M94.48,29.65a8.87,8.87,0,0,1-3.73-.73,5.27,5.27,0,0,1-2.47-2.38,9.21,9.21,0,0,1-.87-4.32,9.42,9.42,0,0,1,1-4.63,6.76,6.76,0,0,1,2.72-2.76,7.72,7.72,0,0,1,3.75-.93,8.69,8.69,0,0,1,1.83.2,5.64,5.64,0,0,1,1.58.54V7.85h6.85V29.33H99.23l-.32-1.08a7.09,7.09,0,0,1-1.94,1A7.42,7.42,0,0,1,94.48,29.65Zm2-4.91a2.54,2.54,0,0,0,1-.19,3.57,3.57,0,0,0,.83-.51V19.48a2.75,2.75,0,0,0-1.85-.64,1.67,1.67,0,0,0-1.59.88,5.39,5.39,0,0,0-.48,2.53c0,1.11.17,1.8.52,2.08A2.51,2.51,0,0,0,96.46,24.74Z" transform="translate(0 -0.26)"/><path class="cls-3" d="M115.87,29.65a12.51,12.51,0,0,1-4.83-.86,6.88,6.88,0,0,1-3.2-2.6,7.82,7.82,0,0,1-1.15-4.41,7.89,7.89,0,0,1,1.15-4.43,6.77,6.77,0,0,1,3.22-2.6,12.62,12.62,0,0,1,4.78-.85,19.11,19.11,0,0,1,3.17.24,9.93,9.93,0,0,1,2.69.85v4.78a9.89,9.89,0,0,0-4.33-.93,4.76,4.76,0,0,0-2.77.66,2.58,2.58,0,0,0-.93,2.28A2.58,2.58,0,0,0,114.6,24a4.66,4.66,0,0,0,2.8.69,8.61,8.61,0,0,0,2.26-.3,11.14,11.14,0,0,0,2.11-.82v5a11.07,11.07,0,0,1-2.73.81A19.46,19.46,0,0,1,115.87,29.65Z" transform="translate(0 -0.26)"/><path class="cls-3" d="M128.3,29.65a6.68,6.68,0,0,1-2.64-.51,4.32,4.32,0,0,1-2-1.61,5,5,0,0,1-.73-2.82,4.64,4.64,0,0,1,1.59-3.78,7.54,7.54,0,0,1,4.88-1.32h3.66v-.22a1.07,1.07,0,0,0-.71-1,5.93,5.93,0,0,0-2.31-.33,18.95,18.95,0,0,0-5.23.8V15a13.69,13.69,0,0,1,3-.81,21.9,21.9,0,0,1,3.57-.31,10.35,10.35,0,0,1,5.92,1.52,5.35,5.35,0,0,1,2.24,4.76v9.15h-6l-.28-1.15a5.83,5.83,0,0,1-2,1.07A9.71,9.71,0,0,1,128.3,29.65Zm2.49-3.86a3.07,3.07,0,0,0,1.35-.27,3.59,3.59,0,0,0,1-.68V23.21H131c-1.13,0-1.69.44-1.69,1.31S129.77,25.79,130.79,25.79Z" transform="translate(0 -0.26)"/><path class="cls-3" d="M142,29.33V14.22h6.66l.16,1a10.32,10.32,0,0,1,2.26-.92A11.16,11.16,0,0,1,154,13.9V19c-.53,0-1.12.08-1.77.16s-1.26.19-1.85.3a8,8,0,0,0-1.48.43v9.47Z" transform="translate(0 -0.26)"/><path class="cls-3" d="M155.49,36V14.22h5.93l.32,1.12a8,8,0,0,1,9.67.38q1.83,1.81,1.83,5.9t-2,6a7.23,7.23,0,0,1-5.4,2,9.45,9.45,0,0,1-1.91-.19,7.3,7.3,0,0,1-1.63-.51v7Zm8.67-11.25a1.86,1.86,0,0,0,1.56-.69,3.83,3.83,0,0,0,.54-2.34,3.5,3.5,0,0,0-.52-2.23,2,2,0,0,0-1.55-.61,2.71,2.71,0,0,0-1.85.71V24.1a3.12,3.12,0,0,0,.81.47A3.19,3.19,0,0,0,164.16,24.71Z" transform="translate(0 -0.26)"/><path class="cls-3" d="M183.63,29.65a12,12,0,0,1-4.73-.88,7.18,7.18,0,0,1-3.27-2.63,7.55,7.55,0,0,1-1.18-4.3,8,8,0,0,1,2.09-5.77c1.39-1.44,3.48-2.17,6.26-2.17a8.92,8.92,0,0,1,6,1.9,6.66,6.66,0,0,1,2.2,5.31v2.61H180.73c.55,1.17,2.11,1.75,4.66,1.75a16.07,16.07,0,0,0,2.71-.23,11.47,11.47,0,0,0,2.1-.56v3.89A15.75,15.75,0,0,1,183.63,29.65Zm-2.9-9.5h4.4v-.41a1.58,1.58,0,0,0-.46-1.15,2.25,2.25,0,0,0-1.64-.48,2.41,2.41,0,0,0-1.79.54A2.1,2.1,0,0,0,180.73,20.15Z" transform="translate(0 -0.26)"/><path class="cls-3" d="M199.63,29.65c-2.16,0-3.73-.54-4.68-1.61a6.27,6.27,0,0,1-1.44-4.35V19.23h-1.88v-5h1.88v-3l6.86-1.49v4.52h3.28l-.19,5h-3.09v4c0,1,.57,1.53,1.72,1.53a6.1,6.1,0,0,0,1.91-.31v4.39a9.66,9.66,0,0,1-2,.58A13.16,13.16,0,0,1,199.63,29.65Z" transform="translate(0 -0.26)"/></svg>